<svg width="54" height="53" viewBox="0 0 54 53" fill="none" xmlns="http://www.w3.org/2000/svg">
<g clip-path="url(#clip0_9_45)">
<path d="M14.3383 52.7402C11.1895 52.597 9.47901 52.0732 8.3413 51.6296C6.83378 51.0429 5.759 50.3445 4.62758 49.215C3.49616 48.0856 2.7959 47.0112 2.21209 45.5043C1.76834 44.367 1.24432 42.6571 1.10113 39.5095C0.943765 36.1071 0.912292 35.0862 0.912292 26.466C0.912292 17.8459 0.946912 16.8266 1.09955 13.421C1.24275 10.2734 1.76991 8.56666 2.21052 7.42622C2.79747 5.91927 3.49773 4.8449 4.62601 3.71232C5.75586 2.5829 6.83063 1.88133 8.33972 1.29774C9.47744 0.854149 11.188 0.330334 14.3367 0.187189C17.742 0.0314604 18.7649 0 27.3851 0C36.0085 0 37.0282 0.0346064 40.435 0.187189C43.5838 0.330334 45.2912 0.857295 46.432 1.29774C47.9396 1.88133 49.0143 2.5829 50.1458 3.71232C51.2772 4.84175 51.9743 5.9177 52.5612 7.42465C53.005 8.56194 53.529 10.2718 53.6722 13.4194C53.828 16.825 53.8595 17.8443 53.8595 26.4645C53.8595 35.0815 53.828 36.1039 53.6722 39.5095C53.529 42.6571 53.0019 44.367 52.5612 45.5043C51.9743 47.0112 51.2756 48.0856 50.1458 49.215C49.0159 50.3445 47.9396 51.0429 46.432 51.6296C45.2943 52.0732 43.5838 52.597 40.435 52.7402C37.0313 52.8959 36.0085 52.9273 27.3851 52.9273C18.7649 52.9273 17.742 52.8975 14.3383 52.7402Z" fill="url(#paint0_radial_9_45)"/>
<path d="M14.3383 52.7402C11.1895 52.597 9.47901 52.0732 8.3413 51.6296C6.83378 51.0429 5.759 50.3445 4.62758 49.215C3.49616 48.0856 2.7959 47.0112 2.21209 45.5043C1.76834 44.367 1.24432 42.6571 1.10113 39.5095C0.943765 36.1071 0.912292 35.0862 0.912292 26.466C0.912292 17.8459 0.946912 16.8266 1.09955 13.421C1.24275 10.2734 1.76991 8.56666 2.21052 7.42622C2.79747 5.91927 3.49773 4.8449 4.62601 3.71232C5.75586 2.5829 6.83063 1.88133 8.33972 1.29774C9.47744 0.854149 11.188 0.330334 14.3367 0.187189C17.742 0.0314604 18.7649 0 27.3851 0C36.0085 0 37.0282 0.0346064 40.435 0.187189C43.5838 0.330334 45.2912 0.857295 46.432 1.29774C47.9396 1.88133 49.0143 2.5829 50.1458 3.71232C51.2772 4.84175 51.9743 5.9177 52.5612 7.42465C53.005 8.56194 53.529 10.2718 53.6722 13.4194C53.828 16.825 53.8595 17.8443 53.8595 26.4645C53.8595 35.0815 53.828 36.1039 53.6722 39.5095C53.529 42.6571 53.0019 44.367 52.5612 45.5043C51.9743 47.0112 51.2756 48.0856 50.1458 49.215C49.0159 50.3445 47.9396 51.0429 46.432 51.6296C45.2943 52.0732 43.5838 52.597 40.435 52.7402C37.0313 52.8959 36.0085 52.9273 27.3851 52.9273C18.7649 52.9273 17.742 52.8975 14.3383 52.7402Z" fill="url(#paint1_radial_9_45)"/>
<path d="M21.0198 26.6532C21.0198 23.0335 23.9544 20.0984 27.5754 20.0984C31.1965 20.0984 34.1327 23.0335 34.1327 26.6532C34.1327 30.2729 31.1965 33.208 27.5754 33.208C23.9544 33.208 21.0198 30.2729 21.0198 26.6532ZM17.4751 26.6532C17.4751 32.2296 21.997 36.7498 27.5754 36.7498C33.1539 36.7498 37.6758 32.2296 37.6758 26.6532C37.6758 21.0769 33.1539 16.5566 27.5754 16.5566C21.997 16.5566 17.4752 21.0765 17.4752 26.6532M35.7154 16.1563C35.7152 16.623 35.8535 17.0792 36.1127 17.4673C36.3719 17.8555 36.7404 18.158 37.1716 18.3368C37.6029 18.5156 38.0775 18.5625 38.5354 18.4716C38.9933 18.3808 39.414 18.1562 39.7442 17.8263C40.0744 17.4965 40.2994 17.0762 40.3907 16.6185C40.4819 16.1608 40.4354 15.6864 40.2569 15.2552C40.0784 14.8239 39.776 14.4553 39.388 14.1959C38.9999 13.9365 38.5436 13.7979 38.0767 13.7977H38.0758C37.45 13.798 36.85 14.0466 36.4074 14.4888C35.9648 14.931 35.7159 15.5308 35.7154 16.1563ZM19.6287 42.6584C17.711 42.5711 16.6686 42.2517 15.9759 41.982C15.0575 41.6246 14.4023 41.1989 13.7134 40.5112C13.0244 39.8235 12.598 39.1691 12.242 38.2511C11.972 37.5589 11.6526 36.5167 11.5654 34.5996C11.47 32.527 11.451 31.9044 11.451 26.6535C11.451 21.4026 11.4716 20.7818 11.5654 18.7074C11.6527 16.7904 11.9745 15.7501 12.242 15.056C12.5996 14.138 13.0254 13.483 13.7134 12.7943C14.4013 12.1056 15.056 11.6793 15.9759 11.3235C16.6683 11.0536 17.711 10.7343 19.6287 10.6471C21.7021 10.5518 22.3249 10.5328 27.5754 10.5328C32.8259 10.5328 33.4494 10.5531 35.5245 10.6474C37.4423 10.7347 38.4829 11.0564 39.1773 11.3238C40.0957 11.6796 40.7509 12.1069 41.4399 12.7946C42.1288 13.4823 42.5537 14.1383 42.9112 15.0563C43.1812 15.7484 43.5007 16.7907 43.5878 18.7077C43.6832 20.7821 43.7022 21.4029 43.7022 26.6538C43.7022 31.9047 43.6832 32.5256 43.5878 34.5999C43.5005 36.517 43.1795 37.5589 42.9112 38.2514C42.5537 39.1694 42.1278 39.8244 41.4399 40.5115C40.7519 41.1986 40.0957 41.6249 39.1773 41.9823C38.4849 42.2522 37.4423 42.5715 35.5245 42.6587C33.4511 42.754 32.8283 42.773 27.5754 42.773C22.3226 42.773 21.7015 42.754 19.6287 42.6587M19.4658 7.10956C17.3718 7.20488 15.941 7.53679 14.6914 8.02285C13.398 8.5248 12.3017 9.19821 11.2069 10.2908C10.1122 11.3834 9.44023 12.4795 8.93809 13.774C8.45185 15.0239 8.11982 16.4534 8.02446 18.5467C7.92752 20.6432 7.90533 21.3134 7.90533 26.6532C7.90533 31.993 7.92752 32.6632 8.02446 34.7598C8.11982 36.8531 8.45185 38.2825 8.93809 39.5325C9.44023 40.8253 10.1123 41.9234 11.2069 43.0156C12.3015 44.1077 13.3964 44.7802 14.6914 45.2836C15.9433 45.7696 17.3718 46.1015 19.4658 46.1969C21.5643 46.2922 22.2337 46.3159 27.5754 46.3159C32.9172 46.3159 33.5877 46.2938 35.685 46.1969C37.7792 46.1015 39.2091 45.7696 40.4595 45.2836C41.7529 44.7802 42.8492 44.1082 43.9439 43.0156C45.0387 41.923 45.7092 40.8253 46.2128 39.5325C46.699 38.2825 47.0326 36.853 47.1264 34.7598C47.2218 32.6617 47.244 31.993 47.244 26.6532C47.244 21.3134 47.2218 20.6432 47.1264 18.5467C47.031 16.4533 46.699 15.0231 46.2128 13.774C45.7092 12.4811 45.037 11.3852 43.9439 10.2908C42.8509 9.19648 41.7529 8.5248 40.4611 8.02285C39.2091 7.53679 37.779 7.20331 35.6866 7.10956C33.589 7.01376 32.9188 6.99048 27.5778 6.99048C22.2368 6.99048 21.565 7.01266 19.4666 7.10956" fill="white"/>
</g>
<defs>
<radialGradient id="paint0_radial_9_45" cx="0" cy="0" r="1" gradientUnits="userSpaceOnUse" gradientTransform="translate(4.33898 51.7679) scale(67.2233 67.1981)">
<stop offset="0.09" stop-color="#FA8F21"/>
<stop offset="0.78" stop-color="#D82D7E"/>
</radialGradient>
<radialGradient id="paint1_radial_9_45" cx="0" cy="0" r="1" gradientUnits="userSpaceOnUse" gradientTransform="translate(37.587 50.0684) scale(59.1571 59.1349)">
<stop offset="0.64" stop-color="#8C3AAA" stop-opacity="0"/>
<stop offset="1" stop-color="#8C3AAA"/>
</radialGradient>
<clipPath id="clip0_9_45">
<rect width="52.9472" height="52.9273" fill="white" transform="translate(0.912292)"/>
</clipPath>
</defs>
</svg>
