<svg width="54" height="54" viewBox="0 0 54 54" fill="none" xmlns="http://www.w3.org/2000/svg">
<g clip-path="url(#clip0_2_72)">
<path d="M26.7294 0.927246C19.7028 0.927246 12.9577 3.72093 7.9931 8.68885C3.02337 13.6587 0.230808 20.3989 0.229431 27.4272C0.229431 34.4526 3.02435 41.1977 7.9931 46.1656C12.9577 51.1336 19.7028 53.9272 26.7294 53.9272C33.7561 53.9272 40.5011 51.1336 45.4658 46.1656C50.4345 41.1977 53.2294 34.4526 53.2294 27.4272C53.2294 20.4018 50.4345 13.6568 45.4658 8.68885C40.5011 3.72093 33.7561 0.927246 26.7294 0.927246Z" fill="url(#paint0_linear_2_72)"/>
<path d="M12.2248 27.1473C19.9512 23.7818 25.1021 21.5629 27.6776 20.4909C35.0396 17.4297 36.5675 16.8981 37.5654 16.88C37.7849 16.8765 38.2735 16.9308 38.5923 17.1885C38.8573 17.4059 38.9318 17.6999 38.9691 17.9063C39.0022 18.1125 39.0478 18.5825 39.0105 18.9493C38.613 23.1396 36.8864 33.3082 36.0085 38.0016C35.64 39.9874 34.9071 40.6532 34.1991 40.7182C32.6588 40.8598 31.4911 39.7013 30.0005 38.7245C27.6693 37.1954 26.3526 36.2439 24.0877 34.752C21.4708 33.0279 23.1685 32.0801 24.6591 30.5315C25.0483 30.1261 31.8307 23.9586 31.959 23.3992C31.9756 23.3293 31.9921 23.0684 31.8348 22.9309C31.6816 22.7931 31.4539 22.8403 31.2882 22.8775C31.0522 22.9305 27.3298 25.3934 20.1085 30.2656C19.0527 30.9919 18.0962 31.3459 17.235 31.3273C16.2909 31.307 14.469 30.7923 13.115 30.3526C11.4588 29.8131 10.1379 29.5278 10.2539 28.6115C10.3118 28.1345 10.9702 27.6463 12.2248 27.1473Z" fill="white"/>
</g>
<defs>
<linearGradient id="paint0_linear_2_72" x1="26.7294" y1="0.927246" x2="26.7294" y2="53.9272" gradientUnits="userSpaceOnUse">
<stop stop-color="#2AABEE"/>
<stop offset="1" stop-color="#229ED9"/>
</linearGradient>
<clipPath id="clip0_2_72">
<rect width="53" height="53" fill="white" transform="translate(0.229431 0.927246)"/>
</clipPath>
</defs>
</svg>
