<svg width="53" height="52" viewBox="0 0 53 52" fill="none" xmlns="http://www.w3.org/2000/svg">
<g clip-path="url(#clip0_2_68)">
<path d="M5.71409 24.2807C5.71297 27.9971 6.77583 31.6259 8.79684 34.8244L5.52081 45.7527L17.7617 42.8203C21.1474 44.5043 24.9408 45.3867 28.7957 45.3869H28.8058C41.5314 45.3869 51.8904 35.926 51.8958 24.2973C51.8983 18.6624 49.4986 13.3637 45.1387 9.37722C40.7795 5.3911 34.982 3.19471 28.8049 3.19214C16.0777 3.19214 5.71954 12.6525 5.71428 24.2807" fill="url(#paint0_linear_2_68)"/>
<path d="M2.42061 24.252C2.41922 28.5264 3.58326 32.6992 5.79627 36.3773L2.20831 48.9447L15.6147 45.5725C19.3086 47.5046 23.4676 48.5233 27.6996 48.5248H27.7105C41.648 48.5248 52.994 37.6436 53 24.2714C53.0024 17.7908 50.3739 11.6968 45.5995 7.11253C40.8245 2.52882 34.4755 0.00266472 27.7105 0C13.7706 0 2.42616 10.8797 2.42061 24.252ZM10.4044 35.7438L9.90385 34.9815C7.79956 31.7717 6.68889 28.0624 6.69048 24.2536C6.69504 13.1388 16.124 4.09606 27.7184 4.09606C33.3333 4.09835 38.6101 6.19815 42.579 10.0079C46.5477 13.8181 48.7315 18.883 48.7301 24.2699C48.7249 35.3847 39.2958 44.4286 27.7105 44.4286H27.7022C23.9299 44.4267 20.2302 43.4548 17.0038 41.6182L16.2359 41.1814L8.2803 43.1824L10.4044 35.7437V35.7438Z" fill="url(#paint1_linear_2_68)"/>
<path d="M23.5618 13.8061C23.1344 12.8191 22.6846 12.7992 22.2782 12.7819C21.9453 12.767 21.5649 12.7681 21.1848 12.7681C20.8043 12.7681 20.1861 12.9168 19.6636 13.5096C19.1406 14.1029 17.6667 15.5368 17.6667 18.4531C17.6667 21.3696 19.7111 24.188 19.9961 24.5839C20.2814 24.979 23.9428 31.1552 29.7415 33.5312C34.5608 35.5058 35.5415 35.113 36.5874 35.014C37.6335 34.9154 39.9629 33.5805 40.4381 32.1964C40.9137 30.8124 40.9137 29.626 40.7711 29.3781C40.6286 29.1312 40.2481 28.9828 39.6776 28.6865C39.1069 28.39 36.3021 26.956 35.7792 26.7581C35.2561 26.5605 34.8759 26.4618 34.4954 27.0554C34.1149 27.648 33.0224 28.9828 32.6894 29.3781C32.3568 29.7744 32.0238 29.8237 31.4534 29.5272C30.8826 29.2298 29.0452 28.6046 26.8654 26.5854C25.1695 25.0142 24.0245 23.0739 23.6917 22.4804C23.3588 21.8878 23.656 21.5665 23.9421 21.2711C24.1984 21.0056 24.5128 20.579 24.7983 20.233C25.0828 19.8868 25.1777 19.6398 25.3679 19.2445C25.5583 18.8488 25.463 18.5026 25.3206 18.2061C25.1777 17.9096 24.0691 14.9781 23.5618 13.8061Z" fill="white"/>
</g>
<defs>
<linearGradient id="paint0_linear_2_68" x1="28.7083" y1="45.7527" x2="28.7083" y2="3.19214" gradientUnits="userSpaceOnUse">
<stop stop-color="#1FAF38"/>
<stop offset="1" stop-color="#60D669"/>
</linearGradient>
<linearGradient id="paint1_linear_2_68" x1="27.6041" y1="48.9447" x2="27.6041" y2="0" gradientUnits="userSpaceOnUse">
<stop stop-color="#F9F9F9"/>
<stop offset="1" stop-color="white"/>
</linearGradient>
<clipPath id="clip0_2_68">
<rect width="53" height="51.0727" fill="white"/>
</clipPath>
</defs>
</svg>
